<?xml version="1.0" encoding="UTF-8"?>
<!-- Created with Inkscape (http://www.inkscape.org/) -->
<svg width="48.765mm" height="55.311mm" version="1.1" viewBox="0 0 48.765 55.311" xmlns="http://www.w3.org/2000/svg">
 <g transform="translate(-84.677 -122.24)">
  <g stroke-width=".024192"></g>
  <path d="m104.14 122.47c-5.4592 0.47282-11.707 1.6911-16.112 5.1576-2.571 2.0232-4.2176 5.2649-2.3543 8.3539 1.527 2.5316 4.4074 4.0463 7.0536 5.1443 6.3636 2.6404 14.213 3.31 21.035 2.6499 5.5163-0.53382 11.881-1.7543 16.336-5.2586 2.6648-2.0964 4.2701-5.4479 2.2136-8.5776-1.628-2.4777-4.4642-3.929-7.1367-5.0117-6.4784-2.6244-14.136-3.0553-21.035-2.4578m28.867 14.407c-0.82259 4.5585-7.0045 7.1066-10.965 8.139-8.9571 2.3349-19.189 2.6448-27.972-0.65948-3.4846-1.3111-7.81-3.378-8.9511-7.2558h-0.22378c0 3.0048-0.82426 7.4129 0.77857 10.07 1.9478 3.2291 6.0585 4.9652 9.5152 6.0364 8.6761 2.6882 19.314 2.7026 27.972-0.0714 3.5954-1.152 8.4915-3.2034 9.8221-7.0839 0.53595-1.5631 0.24794-3.5149 0.24794-5.1469 0-1.2574 0.26608-2.8607-0.22379-4.028m-48.112 11.189c0 3.1465-0.8775 7.783 0.91928 10.518 2.2677 3.4511 6.7056 4.9999 10.493 6.0733 8.3348 2.3624 17.888 2.3056 26.182-0.19244 3.454-1.0404 7.2309-2.4795 9.5041-5.4333 2.1642-2.8124 1.2373-7.6071 1.2373-10.965h-0.22379c-1.2299 5.1753-8.1634 7.529-12.755 8.5817-11.526 2.6421-28.429 2.3729-35.357-8.5817m0 11.189c0 3.2067-0.91615 7.9994 1.0379 10.741 2.2843 3.2054 6.5159 4.7763 10.151 5.8182 8.3702 2.3994 18.055 2.2534 26.406-0.12955 3.4956-0.99738 7.5185-2.6227 9.7034-5.6887 1.954-2.742 1.0379-7.5346 1.0379-10.741h-0.22379c-0.91501 5.0704-7.9992 7.3932-12.308 8.4752-11.114 2.7916-29.442 2.769-35.804-8.4752z" fill="#32b7e3"/>
 </g>
 <style>.st0{fill:#007acc}.st1{fill:#fff}</style>
</svg>
