<?xml version="1.0" encoding="UTF-8"?>
<!-- Created with Inkscape (http://www.inkscape.org/) -->
<svg width="182.31mm" height="47.834mm" version="1.1" viewBox="0 0 182.31 47.834" xmlns="http://www.w3.org/2000/svg">
 <g transform="translate(-15.79 -125.08)">
  <g stroke-width="1.4948" aria-label="{DEV.AGO}">
   <g fill="#32b7e3">
    <path d="m26.194 172.92h3.3484v-5.3814h-0.95669c-2.0928 0-3.169-0.95669-3.169-4.2453v-8.969c0-2.1526-0.77731-4.4247-3.6474-5.2618v-0.11958c2.8701-0.83711 3.6474-3.1092 3.6474-5.2618v-8.969c0-3.2886 1.0763-4.2453 3.169-4.2453h0.95669v-5.3814h-3.3484c-3.7072 0-6.637 2.0928-6.637 6.637v11.002c0 2.7505-0.77731 3.5876-3.767 3.5876v5.3814c2.9896 0 3.767 0.83711 3.767 3.5876v11.002c0 4.5443 2.9299 6.637 6.637 6.637z"/>
    <path d="m33.488 169.93h10.045c6.5772 0 9.8061-3.6474 9.8061-10.344v-21.167c0-6.6968-3.2288-10.344-9.8061-10.344h-10.045zm6.5772-5.9793v-29.896h3.3484c2.0928 0 3.3484 1.0763 3.3484 4.0659v21.765c0 2.9896-1.2557 4.0659-3.3484 4.0659z"/>
    <path d="m57.764 169.93h17.938v-5.9793h-11.361v-12.856h9.0287v-5.9793h-9.0287v-11.062h11.361v-5.9793h-17.938z"/>
    <path d="m84.073 169.93h8.7298l6.3381-41.855h-6.0391l-4.3051 32.468h-0.11959l-4.3051-32.468h-6.637z"/>
   </g>
   <g fill="#e6e6e6">
    <path d="m102.31 169.93h6.3381v-6.3381h-6.3381z"/>
    <path d="m112.41 169.93h6.0989l1.1959-8.1916h7.4741v-0.11959l1.1959 8.3112h6.5772l-6.8164-41.855h-8.9092zm8.0721-13.872 2.8701-20.688h0.11959l2.9298 20.688z"/>
    <path d="m147.33 170.52c6.4576 0 9.806-3.8268 9.806-10.524v-13.693h-9.5071v5.9793h3.2886v8.1916c0 2.9896-1.3154 4.0659-3.4082 4.0659-2.0928 0-3.4082-1.0763-3.4082-4.0659v-22.901c0-2.9896 1.3154-4.1257 3.4082-4.1257 2.0928 0 3.4082 1.1361 3.4082 4.1257v4.0061h6.2185v-3.5876c0-6.6968-3.3484-10.524-9.806-10.524-6.4576 0-9.8061 3.8268-9.8061 10.524v22.004c0 6.6968 3.3484 10.524 9.8061 10.524z"/>
    <path d="m170.89 170.52c6.4576 0 9.9854-3.8268 9.9854-10.524v-22.004c0-6.6968-3.5278-10.524-9.9854-10.524-6.4576 0-9.9854 3.8268-9.9854 10.524v22.004c0 6.6968 3.5278 10.524 9.9854 10.524zm0-5.9793c-2.0928 0-3.4082-1.1361-3.4082-4.1257v-22.841c0-2.9896 1.3154-4.1257 3.4082-4.1257 2.0928 0 3.4082 1.1361 3.4082 4.1257v22.841c0 2.9896-1.3154 4.1257-3.4082 4.1257z"/>
    <path d="m184.35 172.92h3.3484c3.7072 0 6.637-2.0928 6.637-6.637v-11.002c0-2.7505 0.77731-3.5876 3.767-3.5876v-5.3814c-2.9896 0-3.767-0.8371-3.767-3.5876v-11.002c0-4.5443-2.9298-6.637-6.637-6.637h-3.3484v5.3814h0.95669c2.0928 0 3.169 0.95669 3.169 4.2453v8.969c0 2.1526 0.77731 4.4247 3.6474 5.2618v0.11958c-2.8701 0.8371-3.6474 3.1092-3.6474 5.2618v8.969c0 3.2886-1.0763 4.2453-3.169 4.2453h-0.95669z"/>
   </g>
  </g>
 </g>
</svg>
