<?xml version="1.0" encoding="UTF-8"?>
<!-- Created with Inkscape (http://www.inkscape.org/) -->
<svg width="53.834mm" height="53.818mm" version="1.1" viewBox="0 0 53.834 53.818" xmlns="http://www.w3.org/2000/svg">
 <g transform="translate(-80.642 -122.49)">
  <g stroke-width=".024192"></g>
  <path d="m109.6 142.82c0 4.4322-0.69341 9.4991 0.0354 13.866 0.31271 1.8731 2.4193 2.5548 2.0398 4.8102-0.70681 4.2002-6.6132 4.5033-7.8686 0.47887-0.85349-2.736 1.9861-3.4902 2.1877-5.75 0.25931-2.9036 0.0141-5.9394 0.0141-8.8555 0-1.4528 0.3206-3.3423-0.0761-4.7446-0.34192-1.2084-1.7724-1.856-2.1628-3.1568-0.28141-0.93758 0.19773-1.9899-0.18345-2.8732-0.53998-1.2513-4.3087-5.4575-5.7184-5.4575-1.392 0-3.388 2.8596-4.3098 3.7814l-9.0985 9.0985c-1.2656 1.2656-3.3238 2.7145-3.7364 4.5493-0.65862 2.929 2.6683 5.1572 4.4547 6.9436l16.042 16.042c1.9088 1.9088 4.5031 5.7493 7.6619 4.5138 1.4376-0.56243 2.5275-2.0132 3.5915-3.0772l18.437-18.437c1.4926-1.4926 3.7986-3.1261 3.5429-5.507-0.29092-2.7076-3.9011-5.1468-5.6978-6.9436l-13.648-13.648c-1.7716-1.7716-3.854-4.7827-6.2253-5.711-2.794-1.0938-4.7269 1.5779-6.4648 3.3166-0.57972 0.57998-1.6247 1.3206-1.8327 2.1549-0.24875 0.9978 1.2291 2.0299 1.8327 2.6338 1.0736 1.0741 2.2179 2.6586 3.5915 3.3454 1.0389 0.51945 2.2799 0.11148 3.3518 0.65033 2.7882 1.4014 1.3677 3.6656 2.7195 5.5816 1.145 1.6228 3.2597 3.8264 4.9427 4.8835 0.94553 0.59392 2.0876 0.1932 3.1127 0.53449 2.176 0.72451 3.5542 3.5285 2.3728 5.5958-1.7306 3.0291-5.8317 2.9656-7.3011-0.23944-0.53106-1.1584 0.04-2.5392-0.67616-3.5913-1.1752-1.7259-3.2309-3.5914-4.9307-4.7887z" fill="#32b7e3"/>
 </g>
 <style>.st0{fill:#007acc}.st1{fill:#fff}</style>
</svg>
