<?xml version="1.0" encoding="UTF-8"?>
<!-- Created with Inkscape (http://www.inkscape.org/) -->
<svg width="33.034mm" height="33.868mm" version="1.1" viewBox="0 0 33.034 33.868" xmlns="http://www.w3.org/2000/svg">
 <g transform="translate(-90.509 -130.8)">
  <path d="m90.979 164.53c-0.11657-0.0728-0.27009-0.2293-0.34117-0.34788-0.12801-0.21358-0.12922-0.3671-0.12922-16.455s1e-3 -16.242 0.12922-16.455c0.0711-0.11857 0.2246-0.27474 0.34117-0.34704 0.20994-0.13021 0.3606-0.13145 16.047-0.13145 15.686 0 15.837 1e-3 16.047 0.13145 0.11656 0.0723 0.27009 0.22847 0.34116 0.34704 0.12803 0.21361 0.12922 0.36808 0.12946 16.803l2.1e-4 16.587h-5.599c-6.1766 0-5.8834 0.0198-6.1417-0.4145-0.12007-0.20192-0.12938-0.39387-0.16607-3.4222-0.0328-2.7044-0.0557-3.2666-0.14611-3.5799-0.16436-0.56962-0.39074-1.0476-0.68364-1.4436-0.14644-0.19795-0.25492-0.37143-0.24107-0.38552 0.0138-0.0141 0.52518-0.12801 1.1363-0.25317 0.61111-0.12515 1.4134-0.32826 1.7827-0.45135 2.2947-0.76464 3.6883-2.0627 4.4946-4.1865 0.80618-2.1234 0.94517-3.8204 0.48107-5.8736-0.15966-0.70632-0.42911-1.3281-0.93799-2.1645-0.20539-0.33758-0.42824-0.73964-0.49522-0.89346-0.11481-0.26364-0.11585-0.30154-0.0182-0.66149 0.14536-0.53579 0.20116-2.0248 0.0982-2.62-0.12912-0.74626-0.37714-1.4812-0.53873-1.5963-0.30181-0.21504-1.3406-0.0649-2.2527 0.32562-0.2231 0.0955-0.86315 0.42912-1.4223 0.74133-0.55918 0.3122-1.1253 0.58246-1.258 0.60057-0.13273 0.0181-0.45605-0.0156-0.7185-0.0749-2.4027-0.54293-5.1839-0.5415-7.5584 4e-3 -0.61501 0.14127-0.84395 0.0929-1.5462-0.32643-0.33374-0.19931-0.78237-0.45179-0.99697-0.56107-1.0654-0.54257-2.6603-0.97593-3.0046-0.81638-0.52224 0.24205-0.87018 2.7193-0.56758 4.041 0.17158 0.74941 0.15782 0.85018-0.17688 1.2959-1.3696 1.8238-1.7673 4.0814-1.227 6.9658 0.57109 3.0488 2.3704 5.0629 5.2902 5.9221 0.46762 0.1376 0.80849 0.21298 2.3003 0.50869l0.33834 0.0671-0.27945 0.38615c-0.28861 0.39881-0.53116 0.93446-0.735 1.6232-0.11661 0.394-0.1202 0.39792-0.50761 0.5542-1.0709 0.43199-2.1733 0.4226-3.0697-0.0262-0.61421-0.30749-1.0823-0.75241-1.7793-1.6914-0.66824-0.90017-0.96135-1.173-1.6126-1.5007-0.42247-0.21261-0.549-0.24414-1.0733-0.26747-0.51318-0.0228-0.61544-9e-3 -0.74844 0.10045-0.15036 0.12384-0.15143 0.13206-0.0447 0.34196 0.0601 0.11828 0.24442 0.31 0.40954 0.42602 1.0422 0.73231 1.4549 1.2378 2.0899 2.5593 0.37498 0.78035 0.49112 0.9572 0.92053 1.4016 1.0157 1.0513 2.0397 1.3109 4.648 1.1782l0.65029-0.0331-0.0111 1.8136c-0.0121 1.9721-0.0247 2.0472-0.3768 2.2437-0.17896 0.0998-0.70421 0.11172-5.6273 0.12725-5.331 0.0168-5.4338 0.0147-5.6419-0.11516z" fill="#1486a8" stroke-width=".065587"/>
 </g>
</svg>
