<?xml version="1.0" encoding="UTF-8"?>
<!-- Created with Inkscape (http://www.inkscape.org/) -->
<svg width="53.632mm" height="53.892mm" version="1.1" viewBox="0 0 53.632 53.892" xmlns="http://www.w3.org/2000/svg">
 <g transform="translate(-81.033 -121.4)">
  <g stroke-width=".024192"></g>
  <path transform="matrix(.26458 0 0 .26458 81.033 121.4)" d="m0 0v203.69h202.71v-203.69h-202.71zm154.57 92.82c2.7802-0.025525 5.6076 0.21628 8.1699 0.72852 5.8978 1.179 10.806 3.9142 14.68 8.1816 1.6559 1.8241 4.6671 6.1078 4.5352 6.4512-0.02268 0.06387-1.9668 1.3495-4.3184 2.8574s-5.6868 3.647-7.4102 4.7539l-3.1328 2.0137-0.58398-0.95898c-0.91548-1.5015-1.648-2.4738-2.6582-3.5312-2.2926-2.3998-4.5232-3.425-7.9883-3.6719-3.9987-0.28498-7.1833 1.013-8.9316 3.6406-1.0151 1.5257-1.4152 3.0788-1.3144 5.1133 0.15647 3.1636 1.4586 5.3212 4.3945 7.2852 1.9076 1.2761 3.929 2.2633 9.8867 4.8281 2.3583 1.0153 4.9228 2.1406 5.6992 2.5 10.541 4.879 16.329 9.636 19.434 15.971 1.7692 3.6106 2.6362 7.739 2.6367 12.564 9.8e-4 6.4481-1.798 11.881-5.4141 16.354-1.4013 1.7332-3.9648 3.9947-5.9512 5.25-5.9535 3.7626-14.172 5.6312-22.887 5.2031-9.2747-0.4557-17.104-3.2208-23.434-8.2754-1.4126-1.1281-3.9546-3.6675-5.0762-5.0703-1.0696-1.3377-2.732-3.8278-3.4805-5.2129l-0.55273-1.0234 0.21679-0.13867c0.11944-0.07597 1.4742-0.86608 3.0098-1.7559 2.7226-1.5775 3.5447-2.0535 9.2246-5.3516 1.5082-0.87575 2.8383-1.6439 2.957-1.707 0.2022-0.10734 0.26906-0.03336 1.0566 1.1562 1.1688 1.766 2.1198 2.963 3.4082 4.293 3.3528 3.4611 6.8729 5.2226 11.822 5.9141 1.2379 0.17273 4.5135 0.14626 5.8066-0.04687 5.6373-0.8411 9.2754-3.7558 9.9531-7.9746 0.17991-1.12 0.07227-2.7794-0.2539-3.9024-0.74986-2.5825-2.3938-4.4011-5.7324-6.3398-1.791-1.0401-6.2666-3.1108-11.293-5.2246-5.1964-2.1853-8.6242-3.9478-11.842-6.0898-7.3546-4.8962-11.22-10.854-12.32-18.996-0.21846-1.6168-0.3005-5.3533-0.15234-6.9414 1.0249-11 8.5538-19.291 19.951-21.971 2.3715-0.55754 5.1046-0.84947 7.8848-0.875zm-63.229 1.0664 9.5996 0.027343 9.5976 0.025391 0.0293 31.961c0.03024 33.176 3.1e-4 36.262-0.375 39.139-0.85433 6.5394-3.1397 11.702-6.877 15.541-1.3088 1.3444-2.2682 2.152-3.6895 3.1016-4.1332 2.7615-9.7399 4.4244-15.512 4.5996-0.87753 0.02646-1.7534 0.05904-1.9453 0.07227-0.192 0.01511-1.1573-0.00707-2.1445-0.04297v-0.00196c-6.93-0.26116-12.857-2.2635-17.9-6.0469-1.3769-1.0328-4.1526-3.7696-5.1816-5.1094-1.3773-1.793-3.114-4.5826-3.6914-5.9297l-0.17969-0.41993 2.9531-1.7871c1.6247-0.98237 3.8531-2.3282 4.9512-2.9922 1.098-0.66399 3.2667-1.9777 4.8184-2.918 1.5517-0.9402 2.8518-1.7079 2.8906-1.707 0.038816 0.00102 0.27275 0.36718 0.51953 0.81445 0.65854 1.1937 1.9119 3.1764 2.5625 4.0527 0.81638 1.0996 2.4455 2.6925 3.3633 3.2891 0.90214 0.58643 1.9251 1.0371 3.0312 1.334 0.97073 0.26041 3.9623 0.36621 5.2246 0.18555 5.1208-0.73251 7.394-3.6339 7.8535-10.025 0.064252-0.89435 0.10081-13.214 0.10156-34.279v-32.883z" fill="#32b7e3" stroke-width="1.0169"/>
 </g>
 <style>.st0{fill:#007acc}.st1{fill:#fff}</style>
</svg>
