<?xml version="1.0" encoding="UTF-8"?>
<!-- Created with Inkscape (http://www.inkscape.org/) -->
<svg width="107.27mm" height="107.29mm" version="1.1" viewBox="0 0 107.27 107.29" xmlns="http://www.w3.org/2000/svg">
 <g transform="translate(-54.114 -95.246)">
  <path d="m62.721 202.47c-3.6932-0.35333-6.889-3.0065-8.2193-6.8238-0.37185-1.067-0.38729-2.9316-0.38729-46.768s0.01544-45.701 0.38729-46.768c1.1264-3.2322 3.2461-5.3519 6.4783-6.4783 1.067-0.37185 2.9316-0.38729 46.768-0.38729 43.837 0 45.701 0.0154 46.768 0.38729 3.2322 1.1264 5.3518 3.2461 6.4783 6.4783 0.37185 1.067 0.38729 2.9316 0.38729 46.768s-0.0155 45.701-0.38729 46.768c-1.1063 3.1745-3.1091 5.2122-6.3598 6.4707-0.98636 0.38187-2.497 0.39546-46.047 0.41411-24.765 0.0106-45.405-0.0169-45.867-0.061zm23.338-12.148c0.32577-0.23912 0.75747-0.75866 0.95934-1.1546 0.3435-0.67364 0.36705-2.3656 0.36736-26.389 3.53e-4 -27.828 0.05819-26.435-1.1438-27.545l-0.56849-0.5248-7.0105-0.0605c-7.7708-0.0671-7.9001-0.0481-8.7085 1.2777-0.4006 0.657-0.40978 1.256-0.41055 26.774-8.82e-4 29.09-0.12054 26.799 1.4477 27.718 0.73238 0.42915 0.96695 0.44118 7.6154 0.3906 6.5641-0.0499 6.8853-0.0709 7.4521-0.48695zm25.612 0.13032c1.2678-0.77305 1.2105-0.0692 1.3344-16.384l0.11395-15.009 0.5392-1.8032c1.8303-6.1211 5.66-8.9012 10.984-7.974 2.7783 0.48382 4.6021 1.8872 5.8862 4.5293 1.4121 2.9055 1.4135 2.9232 1.5508 20.083l0.12379 15.465 0.49305 0.52459c0.90926 0.96744 1.197 0.99801 8.7928 0.9338l7.1656-0.0606 0.64796-0.62103c0.35638-0.34157 0.74896-0.95813 0.8724-1.3701 0.31379-1.0473 0.1223-31.665-0.21598-34.534-0.85471-7.2494-2.738-11.978-6.1521-15.447-2.1112-2.1452-5.1789-3.7698-8.5548-4.5306-1.992-0.44885-7.3847-0.60371-9.7273-0.27933-2.3746 0.32882-5.5822 1.3657-7.1903 2.3243-1.4181 0.84539-3.4 2.6133-4.5339 4.0445l-0.80493 1.016v-2.3384c0-2.5883-0.20407-3.2453-1.2363-3.9803-0.59095-0.4208-0.86137-0.43639-7.5706-0.43639-7.6871 0-7.8321 0.0222-8.6248 1.3222-0.40059 0.65698-0.40979 1.2554-0.41055 26.705-8.39e-4 24.813 0.01719 26.067 0.38279 26.748 0.77419 1.4436 1.001 1.4825 8.6396 1.4816 6.3883-8.4e-4 6.8684-0.0269 7.4944-0.40861zm-30.897-60.784c2.268-0.47828 3.9803-1.4226 5.6742-3.1291 1.6639-1.6764 2.6642-3.3966 3.134-5.3898 0.95454-4.0495-0.26602-8.1614-3.2614-10.987-4.6231-4.3612-11.525-4.3219-15.938 0.0909-2.2923 2.2923-3.424 4.9982-3.424 8.1868 0 4.4519 2.4268 8.3462 6.3923 10.258 2.6512 1.2781 4.6957 1.5454 7.4226 0.97031z" fill="#1486a8" stroke-width=".20992"/>
 </g>
</svg>
