<?xml version="1.0" encoding="UTF-8"?>
<!-- Created with Inkscape (http://www.inkscape.org/) -->
<svg width="51.09mm" height="57.073mm" version="1.1" viewBox="0 0 51.09 57.073" xmlns="http://www.w3.org/2000/svg">
 <g transform="translate(-83.008 -121.23)">
  <g>
   <g stroke-width=".024192"></g>
  </g>
  <path d="m107.08 121.26c-2.3612 0.31014-4.6495 2.1196-6.6642 3.3195-3.8818 2.3118-7.8412 4.4946-11.737 6.7826-1.9984 1.1737-4.7098 2.113-5.3556 4.5765-0.48898 1.8651-0.11498 4.2419-0.11498 6.1669v12.732c0 2.1977-0.55124 5.2564 0.47952 7.261 0.72053 1.4013 2.2919 2.0697 3.5986 2.813 2.942 1.6736 5.8893 3.6919 9.4493 2.935 2.3583-0.50131 3.9125-2.2841 4.2487-4.6539 0.29094-2.0516 0.12781-4.1969 0.12781-6.2664v-16.611c0-0.60625 0.20023-1.6143-0.50171-1.9004-0.62444-0.25453-2.7841-0.33221-3.1607 0.32217-0.26518 0.46093-0.11727 1.263-0.11727 1.7772v17.904c0 1.6349 0.4852 4.0437-0.89917 5.239-1.9081 1.6473-4.4627-0.26776-6.1629-1.2803-0.98601-0.58715-2.3499-1.0854-3.1602-1.9026-0.57929-0.58416-0.32108-1.8935-0.32108-2.6528v-17.009c0-1.0565-0.38095-3.0337 0.11727-3.9744 0.52289-0.9872 2.6108-1.7224 3.563-2.264 3.0284-1.7228 6.0226-3.5061 9.0514-5.2281 1.9627-1.1158 3.9068-2.2642 5.8685-3.3818 0.56427-0.32148 1.5036-1.161 2.1882-0.99725 1.5319 0.36623 3.2058 1.8084 4.5754 2.5887 3.5582 2.0273 7.0901 4.1005 10.643 6.1372l3.5808 2.0618c0.48559 0.27722 1.2165 0.56447 1.4892 1.0832 0.46689 0.88803 0.10225 2.7779 0.10225 3.7757v17.208c0 0.79443 0.29492 2.2356-0.4087 2.7758-1.3054 1.0022-2.9424 1.7121-4.3657 2.5381-3.1456 1.8257-6.2891 3.6559-9.4493 5.4564-1.3977 0.79632-2.782 1.6167-4.1776 2.4168-0.5957 0.34147-1.3153 0.93627-1.9893 1.0821-0.56795 0.12284-1.2306-0.4294-1.6909-0.70233-1.1781-0.69855-2.7324-2.0818-4.0781-2.3517-0.6321-0.12682-1.5182 0.6332-2.0888 0.87719-0.40344 0.17247-1.3466 0.31063-1.5829 0.70342-0.32784 0.54507 1.4336 1.2985 1.7818 1.5074 2.0107 1.2064 4.4297 3.2338 6.7637 3.654 1.7333 0.31192 3.1541-0.67816 4.5754-1.5031 2.5154-1.4599 5.0573-2.876 7.5594-4.3587 2.699-1.5994 5.4291-3.1556 8.1562-4.7069 1.3028-0.74113 3.0145-1.4306 3.8687-2.7135 1.1856-1.7807 0.70671-4.4252 0.70671-6.4653v-14.92c0-2.0913 0.51921-4.8801-0.78847-6.6641-0.83412-1.138-2.3079-1.704-3.4886-2.4073-2.6648-1.587-5.3823-3.0852-8.0567-4.656-2.6413-1.5513-5.2948-3.0876-7.9573-4.6023-1.2714-0.72322-2.6271-1.7248-4.1776-1.5211m25.264 11.794 0.2984 0.29839-0.2984-0.29839m0.2984 0.39786c1.3548 2.9019 1.0941 5.8037 1.0941 8.9519v13.328c0 2.7016 0.41855 5.7472-1.2855 8.0567-1.2089 1.6384-3.2525 2.5266-4.9809 3.5093-2.9958 1.7032-5.9565 3.4683-8.9519 5.1722-1.9956 1.1352-3.9768 2.2955-5.968 3.4384-1.8297 1.0503-3.3896 2.0564-5.5701 2.0028-2.5653-0.063-5.1217-2.196-7.261-3.4376-3.5746-2.0746-7.1529-4.1452-10.742-6.1941-1.6774-0.95736-3.3234-2.0826-5.0728-2.8994 0.54239 0.63747 1.4665 1.0101 2.1882 1.4205 1.2656 0.71953 2.5144 1.4684 3.7797 2.1882 3.7584 2.138 7.4998 4.3091 11.24 6.4795 2.0295 1.1779 4.1207 2.7898 6.5648 2.837 2.5997 0.0501 5.0285-1.8534 7.1616-3.1176 3.9507-2.3411 7.9458-4.6218 11.936-6.8952 2.0396-1.1621 4.5995-2.1963 6.0436-4.106 1.6055-2.1232 1.2174-4.9629 1.2174-7.46v-16.014c0-2.1795 0.51892-5.6771-1.3925-7.261m-20.788 4.3192c-1.5726 0.20649-3.1 0.31839-4.5754 0.98352-3.669 1.654-5.3444 7.3508-1.492 9.846 3.352 2.171 7.8093 1.5464 11.538 2.5447 1.5008 0.40184 2.6549 1.4456 2.0329 3.0949-0.42591 1.129-1.6257 1.6655-2.7292 1.8895-2.4445 0.49624-6.3488 0.71188-8.4542-0.87103-0.58745-0.44162-1.0008-1.1148-1.2165-1.8142-0.12264-0.39757-0.0936-1.0254-0.42651-1.3187-0.4286-0.37768-2.7308-0.35868-3.2165-0.071-0.47644 0.28209-0.34475 1.2234-0.28437 1.6881 0.21246 1.6343 1.053 3.1297 2.3584 4.135 3.1228 2.4048 8.3336 2.5077 12.035 1.6913 1.649-0.36375 3.3474-1.0123 4.5329-2.2624 2.0162-2.1263 2.32-6.3161-0.057-8.3058-2.7693-2.3183-7.4548-2.1542-10.842-2.7429-1.5434-0.26827-3.809-0.68483-3.3292-2.7602 0.26309-1.138 1.3968-1.6789 2.434-1.9243 2.1692-0.51315 5.5105-0.61271 7.359 0.82019 0.56397 0.43716 0.93737 1.0393 1.1885 1.7009 0.13736 0.36166 0.17715 0.9678 0.53164 1.1908 0.46938 0.29531 2.7583 0.2972 3.2269 0 0.40701-0.25812 0.25393-0.89659 0.19823-1.2903-0.16521-1.168-0.59898-2.3517-1.3312-3.2824-2.0254-2.5747-6.3704-3.3503-9.4822-2.9418m-28.845 26.913 0.2984 0.29839-0.2984-0.29839m0.49733 0.39786 0.2984 0.2984z" fill="#32b7e3"/>
 </g>
 <style>.st0{fill:#007acc}.st1{fill:#fff}</style>
</svg>
