<?xml version="1.0" encoding="UTF-8"?>
<!-- Created with Inkscape (http://www.inkscape.org/) -->
<svg width="55.642mm" height="48.384mm" version="1.1" viewBox="0 0 55.642 48.384" xmlns="http://www.w3.org/2000/svg">
 <g transform="translate(-79.345 -123.76)">
  <path d="m95.329 123.89c-0.52516 0.0752-1.0489 0.23053-1.5241 0.46751-3.1908 1.5913-3.6749 5.7063-3.4573 8.8844 0.0398 0.5818 0.10134 1.1621 0.17091 1.7418 0.1192 0.99282 0.31922 1.9744 0.52848 2.9514 0.0521 0.24306 0.11211 0.48462 0.17242 0.72576 0.0184 0.0735 0.0794 0.20803 0.0265 0.27669-0.0549 0.0712-0.21364 0.0904-0.2957 0.11377-0.25109 0.0715-0.4995 0.15128-0.74996 0.2246-0.84396 0.24715-1.6767 0.56104-2.4918 0.88971-2.115 0.85287-4.2644 1.9631-5.8587 3.6261-0.84046 0.87672-1.5296 1.8985-1.813 3.0944-0.0956 0.40316-0.14238 0.82014-0.14235 1.2338 2.2e-4 3.443 3.3978 5.7896 6.169 7.1304 0.55548 0.26877 1.1245 0.50731 1.6934 0.74608 0.7994 0.33506 1.6343 0.63771 2.4676 0.87769 0.24269 0.0699 0.48275 0.14854 0.72576 0.21773 0.0821 0.0235 0.2408 0.0426 0.2957 0.1137 0.0529 0.0687-8e-3 0.20322-0.0265 0.27676-0.0623 0.24918-0.12331 0.49884-0.1775 0.74995-0.22155 1.0265-0.40887 2.0551-0.54452 3.0966-0.3757 2.8839-0.41486 6.402 1.3935 8.8543 0.31026 0.4207 0.67307 0.79011 1.0914 1.1036 0.68212 0.51166 1.5216 0.86559 2.3708 0.96986 0.33024 0.0406 0.68337 7e-3 1.0161 7e-3 2.8514 0 5.4625-1.6228 7.6689-3.2933 0.79156-0.59924 1.5304-1.259 2.274-1.915 0.18144-0.15991 0.36094-0.32998 0.53222-0.50102 0.0578-0.0578 0.15096-0.19209 0.24192-0.19209 0.091 0 0.18411 0.13427 0.24193 0.19209 0.17079 0.17055 0.35005 0.33941 0.53222 0.49787 0.77318 0.67157 1.5314 1.3504 2.3466 1.9726 2.2177 1.692 4.8326 3.2388 7.6931 3.2388 0.39772 0 0.79278 0.0186 1.1854-0.0503 0.48118-0.0849 0.94349-0.25813 1.379-0.47586 3.195-1.5979 3.4387-5.6522 3.3624-8.7636-0.015-0.61084-0.0963-1.2323-0.17587-1.8386-0.13064-0.99236-0.3191-1.9736-0.53053-2.9514-0.0508-0.23491-0.10911-0.46836-0.16741-0.70157-0.0184-0.0735-0.0794-0.20805-0.0264-0.27676 0.0525-0.068 0.19378-0.0803 0.27143-0.10354l0.72576-0.21773c0.85931-0.25885 1.7082-0.57117 2.5402-0.90672 2.1013-0.8472 4.2452-1.9492 5.8312-3.5998 0.79785-0.83052 1.4936-1.7972 1.7922-2.9272 0.12047-0.45699 0.19063-0.93067 0.19063-1.4031-2.4e-4 -3.4297-3.3025-5.7214-6.048-7.0942-0.52884-0.26446-1.0729-0.50634-1.6209-0.72939-0.87236-0.35516-1.7614-0.67788-2.6611-0.95745-0.2412-0.075-0.48312-0.14841-0.72577-0.21835-0.0825-0.0238-0.24022-0.0384-0.29562-0.11039-0.053-0.0687 8e-3 -0.20322 0.0264-0.27669 0.0643-0.25728 0.12555-0.51519 0.18265-0.77414 0.22474-1.0166 0.40497-2.04 0.53948-3.0724 0.37352-2.8673 0.41247-6.3534-1.3581-8.8059-0.30579-0.4235-0.66287-0.79868-1.0785-1.1156-0.69698-0.53158-1.5456-0.89906-2.4192-1.0063-0.33022-0.0406-0.68343-7e-3 -1.0161-7e-3 -2.8089 0-5.4241 1.5818-7.5963 3.2389-0.81406 0.62106-1.5795 1.2926-2.3466 1.9693-0.18144 0.1601-0.36094 0.3301-0.53222 0.50111-0.0578 0.0578-0.15096 0.19219-0.24193 0.19219-0.0907 0-0.1841-0.13437-0.24192-0.19219-0.17152-0.17137-0.35054-0.34077-0.53222-0.50111-0.75116-0.6626-1.497-1.3298-2.2982-1.9332-2.2402-1.6873-4.8329-3.275-7.7173-3.275-0.31593 0-0.65476-0.0344-0.96769 0.0104m10.112 7.6343c-0.322 0.45699-0.7681 0.85705-1.1339 1.2822-0.74511 0.86588-1.4661 1.7528-2.159 2.6611-0.3166 0.41499-0.62137 0.83843-0.93171 1.258-0.11012 0.1489-0.23246 0.41784-0.39822 0.50735-0.10834 0.0585-0.28813 0.0411-0.40909 0.0531-0.29868 0.0299-0.59658 0.0647-0.89511 0.0967-0.93009 0.0996-1.8592 0.23212-2.7821 0.38499-0.79359 0.13146-1.5821 0.28061-2.3708 0.43836-0.18562 0.0371-0.37241 0.0747-0.55642 0.11927-0.0622 0.0151-0.16552 0.0604-0.21922 5e-3 -0.13446-0.13741-0.15038-0.54971-0.19519-0.7344-0.16653-0.68666-0.29545-1.3835-0.41005-2.0805-0.35531-2.161-0.56201-4.5528 0.0981-6.677 0.348-1.1199 1.0122-2.1903 2.2021-2.5298 1.18-0.33673 2.4575 0.0199 3.5562 0.47324 2.4904 1.0276 4.7158 2.8533 6.6044 4.7419m15.144 6.8464c-1.6354-0.31714-3.2577-0.6467-4.911-0.86409-0.5477-0.072-1.0971-0.12791-1.6451-0.19344-0.19353-0.0231-0.50295 0.0128-0.6752-0.0802-0.16571-0.0895-0.28812-0.35845-0.3982-0.50735-0.31038-0.41956-0.6152-0.843-0.93163-1.258-1.0279-1.3472-2.0936-2.7196-3.293-3.9191 0.15749-0.22349 0.38417-0.39411 0.58061-0.58155 0.42046-0.40149 0.85979-0.78564 1.3064-1.1583 1.731-1.4449 3.6789-2.8188 5.8787-3.4233 1.0814-0.29713 2.387-0.35327 3.3143 0.38402 0.97349 0.7741 1.3855 2.0894 1.5514 3.2792 0.27724 1.9885 0.0963 4.0061-0.2591 5.9754-0.13813 0.76698-0.2424 1.6156-0.51819 2.3466m-10.33-1.3306c-2.1163-0.0909-4.2227-0.0436-6.3383 0l0.65608-0.87092 1.6838-2.0321 0.58037-0.65319 0.24893-0.21272 0.24604 0.21272 0.58327 0.65319 1.6242 1.9596 0.7156 0.94349m-4.0159 2.281c0.59561-0.0703 1.2418-0.01 1.8386 0.0163 0.79108 0.0346 1.581 0.0172 2.3708 0.0714 0.39433 0.027 0.79253 0.0215 1.1854 0.0678 0.12314 0.0145 0.26756-0.0137 0.38272 0.0435 0.16233 0.0808 0.28498 0.3721 0.38344 0.51979 0.3041 0.45614 0.60311 0.91519 0.89535 1.379 0.96018 1.5235 1.8176 3.0957 2.6897 4.6691 0.25426 0.45849 0.47683 0.93471 0.71101 1.4031 0.0789 0.15817 0.26538 0.40142 0.26538 0.58061 0 0.25136-0.28183 0.59271-0.38223 0.82253-0.36844 0.8443-0.84696 1.6634-1.2957 2.4676-0.76567 1.3727-1.5722 2.7187-2.4233 4.0401-0.19862 0.30845-0.40183 0.614-0.60529 0.9193-0.0973 0.14588-0.16596 0.30579-0.3549 0.33167-0.65076 0.0895-1.3279 0.076-1.9837 0.10475-1.6804 0.0736-3.3516 0.0315-5.032 0.0232-0.67036-3e-3 -1.34-0.0489-2.0079-0.0946-0.20718-0.0143-0.56099 0.0389-0.74207-0.075-0.14607-0.0919-0.25203-0.34183-0.34657-0.4836-0.26188-0.39287-0.51638-0.78987-0.77415-1.1854-1.0104-1.55-1.94-3.1706-2.7883-4.8142-0.2491-0.48264-0.49833-0.9643-0.7378-1.4515-0.0813-0.16523-0.27732-0.41828-0.27732-0.6048 0-0.18086 0.18747-0.42005 0.26517-0.58061 0.24037-0.49683 0.49671-0.9851 0.74995-1.4757 0.8484-1.6437 1.7779-3.2641 2.7883-4.8142 0.25779-0.39544 0.51224-0.79256 0.77415-1.1854 0.0945-0.14182 0.2005-0.3916 0.34657-0.48353 0.0994-0.0625 0.24364-0.0432 0.355-0.0508 0.26596-0.0183 0.53237-0.0302 0.79833-0.0484 0.63529-0.0435 1.2747-0.0787 1.9112-0.0943 0.34595-8e-3 0.69649 0.0229 1.0403-0.0176m-7.1367 0.47692-0.58525 0.96768-1.0979 1.8386-0.97046 1.7418-0.51551 0.94349c-0.52296-1.118-0.94059-2.3138-1.3306-3.4837l-0.28225-0.84672c-0.0244-0.0732-0.10625-0.22366-0.0548-0.29689 0.0528-0.0752 0.23031-0.0785 0.31285-0.095 0.29863-0.0597 0.59641-0.12413 0.89511-0.18386 0.73764-0.14753 1.4814-0.2757 2.2257-0.38533 0.4616-0.068 0.95002-0.0919 1.4031-0.20012m15.991 0 1.258 0.17967 2.3466 0.40578 0.89511 0.18359 0.3128 0.0953-0.0547 0.29689-0.28233 0.84672-1.3306 3.4837h-0.0242l-0.71826-1.3548-1.5316-2.6611-0.6394-1.0402-0.23152-0.43546m-23.152 1.4273 0.50796 1.5483 1.2165 3.1934 0.62779 1.4515 0.27441 0.65318-0.27441 0.65319-0.62779 1.4515-1.2005 3.145-0.5239 1.5967c-0.89992-0.18628-1.8029-0.53706-2.6611-0.86075-1.8265-0.68875-3.6846-1.5369-5.1771-2.8196-1.0171-0.8743-1.9339-2.0169-1.8364-3.4321 0.0837-1.216 1.0508-2.2448 1.9332-2.9816 1.4797-1.2356 3.2897-2.0626 5.0803-2.738 0.85858-0.32384 1.7608-0.67433 2.6611-0.86066m30.288 13.693c-0.11951-0.51602-0.32611-1.024-0.49981-1.5241-0.3907-1.1259-0.81527-2.2395-1.2764-3.3385-0.20079-0.47828-0.4132-0.95123-0.61883-1.4273-0.0687-0.15919-0.23152-0.38127-0.23152-0.55642 0-0.19552 0.19015-0.47731 0.27361-0.65318 0.21096-0.44335 0.39941-0.90104 0.58666-1.3548 0.65294-1.5821 1.2984-3.1901 1.7663-4.8384 0.90115 0.1865 1.8018 0.53656 2.6611 0.86066 1.8016 0.6795 3.6186 1.5115 5.1045 2.7582 0.88131 0.73947 1.8567 1.7866 1.9102 3.0098 0.0636 1.4539-0.90212 2.6369-1.9828 3.503-1.4968 1.1997-3.2463 2.0268-5.0319 2.7003-0.85906 0.32417-1.7602 0.67423-2.6611 0.86075m-15.555-11.674c-0.86704 0.11418-1.6743 0.35591-2.395 0.87098-0.52328 0.37397-0.97385 0.8437-1.311 1.3928-1.3288 2.1647-0.75377 5.0724 1.3351 6.5386 0.4894 0.34353 1.0417 0.5869 1.6209 0.73157 0.57141 0.14297 1.182 0.17418 1.766 0.10161 0.70568-0.0878 1.3804-0.32926 1.9837-0.7052 0.48626-0.30289 0.91374-0.69577 1.2609-1.1508 1.4377-1.8853 1.2982-4.7071-0.41441-6.3858-0.58859-0.57688-1.3129-1.0005-2.1045-1.2277-0.54481-0.15636-1.1762-0.24059-1.7418-0.16613m-10.717 7.6102c0.19438 0.46666 0.47738 0.91034 0.71828 1.3548 0.48798 0.90019 1.0048 1.7832 1.5316 2.6611 0.28317 0.47198 0.70087 0.9626 0.89511 1.4757-0.39881-0.0953-0.82749-0.11733-1.2338-0.17587-0.77649-0.11201-1.5531-0.2412-2.3224-0.39506-0.29872-0.0597-0.59664-0.12314-0.8951-0.18386-0.10316-0.0211-0.29125-0.0225-0.37212-0.0953-0.0718-0.0646 9e-3 -0.21458 0.0334-0.28691l0.27416-0.82253c0.28015-0.84044 0.59421-1.6685 0.9209-2.4918 0.1243-0.31329 0.22402-0.78915 0.45-1.0403m22.281 0 1.3306 3.4836 0.28233 0.84672 0.0547 0.2966-0.3128 0.0956-0.89511 0.18361-2.2257 0.38538-1.4031 0.20007 0.57045-0.94349 1.1128-1.8628 0.97034-1.7418 0.51553-0.94349m-12.798 13.741c-0.28571 0.40546-0.74415 0.73931-1.1128 1.0686-0.8385 0.74875-1.7154 1.4498-2.6369 2.0938-1.328 0.928-2.8229 1.7762-4.4272 2.097-0.85679 0.17128-1.7793 0.17225-2.5644-0.25909-0.94518-0.51941-1.428-1.5587-1.6971-2.5569-0.56474-2.0946-0.3607-4.3947-6e-3 -6.5077 0.11293-0.67327 0.24243-1.3436 0.3999-2.0079 0.0423-0.17878 0.0592-0.57723 0.18923-0.71028 0.0741-0.0757 0.32151 0.029 0.41276 0.0474 0.41153 0.0825 0.8219 0.17056 1.2338 0.2516 1.3417 0.26394 2.7046 0.47925 4.0643 0.62488 0.37101 0.0399 0.74161 0.0839 1.1128 0.12096 0.13431 0.0135 0.34594-9e-3 0.45239 0.0844 0.1819 0.15919 0.31924 0.42482 0.45989 0.62126 0.27477 0.38368 0.55726 0.76325 0.8453 1.137 1.029 1.3354 2.0807 2.7013 3.2744 3.8949m15.144-6.8222c0.27966 0.74149 0.37764 1.5943 0.52279 2.3708 0.39869 2.1316 0.64496 4.4971 0.12725 6.6286-0.31619 1.302-0.94663 2.6635-2.3435 3.062-1.1789 0.33652-2.4584-0.0203-3.5562-0.47319-2.4891-1.027-4.7167-2.8542-6.6044-4.7419 0.322-0.45723 0.76786-0.85688 1.1339-1.2822 0.74511-0.86584 1.4663-1.753 2.1591-2.6611 0.31643-0.41489 0.62125-0.8385 0.93163-1.258 0.11008-0.14878 0.23249-0.41779 0.3982-0.5073 0.17225-0.0931 0.48167-0.0571 0.6752-0.0803 0.5482-0.0656 1.0974-0.1212 1.6451-0.1933 1.6533-0.21748 3.2756-0.54698 4.911-0.86414m-10.33 1.3306-0.7156 0.94349-1.6245 1.9596-0.58303 0.65319-0.24604 0.21265-0.24603-0.21265-0.58303-0.65319-1.6245-1.9596-0.7156-0.94349c0.58762 5e-3 1.1784 0.0578 1.766 0.0723 1.5241 0.0373 3.0528-7e-3 4.5723-0.0723z" fill="#32b7e3"/>
  <g stroke-width=".024192"></g>
 </g>
</svg>
