<?xml version="1.0" encoding="UTF-8"?>
<!-- Created with Inkscape (http://www.inkscape.org/) -->
<svg width="48.59mm" height="53.338mm" version="1.1" viewBox="0 0 48.59 53.338" xmlns="http://www.w3.org/2000/svg">
 <g transform="translate(-81.442 -122.29)">
  <g stroke-width=".024192"></g>
  <path d="m109.92 122.29-2.0782 2.9604-0.81211 1.2494c-0.58643 0-1.1729-4e-3 -1.7593 5e-5 -0.22426 1e-3 -0.54201 0.0974-0.74835-5e-3 -0.36336-0.17895-0.68827-0.76612-0.91215-1.0976-0.39565-0.5858-0.89782-1.109-1.2984-1.692-0.17378-0.25304-0.88186-1.5229-1.2509-1.1018-1.1006-0.12009-2.5152 0.7232-3.5186 1.131 0 1.0816-0.06831 2.1884 0.0051 3.2673 0.03498 0.51153 0.25492 1.3443 0.02513 1.8188-0.16474 0.34024-0.65001 0.56284-0.94664 0.77957-0.31166 0.22764-0.64611 0.63517-1.0376 0.71452-0.45728 0.0927-1.0685-0.2235-1.5048-0.34941-1.144-0.33-2.3652-0.60414-3.4534-1.0784-0.32654 0.41738-0.91982 0.90522-1.0053 1.4452-0.38863 0.12863-1.3353 1.5141-1.2613 1.9469 0.05199 0.30405 0.3643 0.51309 0.44448 0.81778l0.81684 0.81683c0.07374 0.48318 0.97172 1.7907 1.4452 1.9478v0.31417l0.31416 0.18851v0.1258c-0.59396 0.51027-0.26974 1.8156-0.84716 2.2869-0.29268 0.23897-0.86152 0.31901-1.2216 0.43751-0.78226 0.2575-1.5472 0.56544-2.3295 0.82883-0.33491 0.11289-0.90462 0.19447-1.1559 0.45888-0.28854 0.3036-0.10067 1.3658-0.10067 1.7685 0 0.53777-0.2022 1.594 0.07402 2.0642 0.20848 0.35483 0.99848 0.4629 1.3654 0.5792 1.2131 0.38454 2.4308 0.75877 3.65 1.1265l0.66333 2.3246-0.72616 1.3198c-0.40088 0.13274-1.0991 1.2132-1.131 1.6336-0.33483 0.11087-1.0102 1.0128-0.97001 1.3823 0.02994 0.2747 0.2854 0.53735 0.425 0.7663 0.14295 0.23456 0.27421 0.52618 0.54502 0.61602l0.50355 0.81187 0.83725 0.91516 1.1153-0.26893 3.6387-1.1742 1.3195 0.65862 0.93346 0.94496 0.0088 3.5162 0.09016 1.3466 1.2922 0.56524 1.8247 0.56285 0.65949 0.10417 0.76549-0.94828 0.3947-0.75086c0.28081-0.0931 0.4298-0.41997 0.59574-0.65347 0.3846-0.54087 1.0123-1.139 1.1636-1.797l2.7018-0.18849c0.23029 0.44435 0.70405 1.346 1.1938 1.508 0.12946 0.94777 1.3477 1.7277 1.7593 2.5762 0.98578-6.3e-4 1.9731-0.46793 2.8903-0.79547 0.25216-0.09 0.84455-0.22061 0.96744-0.48016 0.14229-0.3008 0.0379-0.84649 0.0379-1.1749v-2.7646c0-0.33615-0.0991-0.86533 0.0539-1.1725 0.21992-0.44103 1.2932-1.0641 1.7164-1.3482 0.41584-0.27917 1.1318 0.0893 1.5599 0.24801 0.81382 0.3016 1.6868 0.46516 2.5143 0.7349 0.29852 0.0974 0.79314 0.35569 1.1114 0.24856 0.29701-0.10001 0.43247-0.48374 0.62631-0.70373 0.63938-0.7259 1.5908-1.7755 1.5915-2.7824-0.76022-0.31392-0.96996-1.751-1.7593-2.1363l-1.1132-1.7649 0.21916-0.81151 0.39139-1.5706c0.4742-0.0485 0.93232-0.30129 1.3823-0.45272 0.78365-0.26377 1.5812-0.49279 2.3512-0.79836 0.30663-0.1216 0.89978-0.13916 1.0694-0.46698 0.54664-1.059 0.0352-2.7981 0.0352-3.9369-1.6692-0.18003-3.2796-1.4264-4.9638-1.4452-0.12298-0.69237-0.37096-1.7693-0.81684-2.3248 0.70827-1.0422 1.4066-2.1046 2.1588-3.115 0.23103-0.31033 0.7861-0.87414 0.74904-1.2843-0.0542-0.59854-0.84561-1.404-1.2156-1.8535-0.29312-0.35615-0.73471-1.2402-1.2526-1.2714-0.41948-0.0251-1.0081 0.27615-1.3925 0.43185-0.707 0.28633-1.4653 0.4747-2.1887 0.7197-0.32239 0.10922-0.85283 0.39018-1.1938 0.33414-0.51598-0.0848-1.4996-0.93281-1.9184-1.2738-0.35513-0.28916-0.2179-0.94947-0.2179-1.3587v-2.7018c0-0.31455 0.0958-0.81972-0.0379-1.1094-0.11945-0.25817-0.68105-0.38572-0.93125-0.48149-0.95074-0.36379-1.9465-0.62003-2.9265-0.85961m6.9745 18.096 0.31415 0.43985 0.46793 1.4452 0.0207 1.8197-0.99125 2.2016c-0.60257 0.32503-1.0507 0.97436-1.712 1.2933-0.56338 0.27175-1.2532 0.44096-1.8697 0.5097-0.23613 0.0263-0.52258-0.10961-0.74476-0.0148-0.29349 0.12615-0.74808 0.97818-0.8258 1.2901-0.62357 0.33301-0.98121 1.2538-1.7593 1.3195-0.16236 0.28118-0.53572 0.33622-0.81685 0.46339-0.90566 0.40987-1.9161 0.33195-2.8903 0.29061-0.94236-0.04-1.9974-0.58027-2.7352-1.151-0.31724-0.24543-0.56681-0.69073-0.92565-0.87036-0.4-0.20025-0.8994 0.0746-1.3029 0.1197-0.42852 0.0479-1.2071-0.0744-1.6174-0.1978-0.75708-0.22795-1.4664-0.55261-2.1258-0.99572-0.28584-0.19208-0.6509-0.67255-0.96925-0.73771l-0.18852-0.18852c-0.08195-0.34625-0.37342-0.60827-0.54947-0.9156-0.2862-0.49976-0.55524-1.096-0.67853-1.6606-0.49914-2.2849 0.1072-4.3742 1.8124-5.9983 0.54854-0.52247 1.3928-1.1753 2.1803-1.2275l0.62833-1.9478h0.18849c0.07816-0.57398 1.1671-1.7453 1.7593-1.7593 0.0746-0.34866 0.92968-0.58466 1.2567-0.63355 1.1232-0.16795 2.3554-0.3863 3.4558 0.0977 0.51613 0.22702 1.1274 0.48299 1.5342 0.88664 0.24448 0.24266 0.59659 0.79363 0.91629 0.90937 0.37193 0.13455 0.87283-0.0957 1.2567-0.0612 1.016 0.0918 1.8764 0.35444 2.6966 0.99313 0.85522 0.66597 0.9856 1.539 1.4957 2.3807 0.16507 0.27231 0.62751 0.31398 0.89714 0.43455 0.7217 0.32284 1.1617 1.1916 1.8222 1.4644m-18.41-0.69118c-0.24211 0.44927-0.82023 0.76872-1.127 1.2127-0.79621 1.1526-0.88056 2.8409-0.40377 4.1272 0.69149 1.8655 2.5975 2.7674 4.4839 2.5878 0.43965-0.0419 1.2689-0.0898 1.5708-0.45051 0.6506 0.40162 0.96871 1.3126 1.6126 1.8024 1.753 1.3333 4.0753 0.76147 5.4584-0.75274 0.4108-0.44976 0.58781-1.0499 0.76882-1.6152 0.0668-0.20834 0.0439-0.57523 0.27497-0.6813 0.29833-0.13702 0.71077 0.17808 0.99848 0.22739 0.92069 0.15776 2.9417 3.8e-4 3.1392-1.2426h0.18851l0.42362-1.6337-0.42362-1.6337c-0.50116-0.27-0.7709-0.85215-1.3464-1.0848-0.40225-0.16252-1.2215-0.0931-1.5085-0.39634-0.35632-0.37631-0.10493-1.0527-0.31907-1.4874-0.62902-1.2772-1.9258-2.0333-3.3582-1.5893-0.28991 0.0898-0.75274 0.24159-0.94495 0.47378h-0.0629c-0.54997-0.64693-0.80727-1.4189-1.4847-1.9925-1.6383-1.3872-4.314-0.68091-5.2692 1.1602-0.2003 0.38611-0.34891 0.84642-0.40088 1.2778-0.0331 0.27388 0.0686 0.62744-0.10884 0.86477-0.16169 0.21628-0.4042 0.1699-0.6353 0.22638-0.52838 0.12913-1.0013 0.53102-1.526 0.59974m-0.43984 32.422c0.03649 0.24442 0.768 0.30409 1.0053 0.38076 0.42223 0.13637 1.0638 0.29532 1.1542 0.8118 0.0319 0.18285-0.0777 0.37952-0.086 0.56677l-1.3185 0.17467-0.94344-0.30035v-0.18849c-0.28218-0.0735-0.55154-0.46497-0.8218-0.46434-0.37863 6.3e-4 -0.9523 0.96071-1.0004 1.2812 0.70644 0.35878 1.2345 0.86836 2.0286 1.1002 1.6298 0.47438 3.711-0.16777 3.9499-2.0427 0.0797-0.62456-0.36425-1.0763-0.44927-1.6336l-3.393-1.3195c-0.01313-0.20548-0.1311-0.42601-0.07399-0.62834 0.36278-1.2843 2.3035-0.0898 2.9643 0.12564l0.81684-1.131c-1.164-1.3239-4.3488-1.6632-5.3252 0.0635-0.67815 1.1995-0.06945 3.158 1.4924 3.2039m-16.525 3.393h1.6965v-1.6965c0-0.1929-0.05199-0.49513 0.10067-0.64467 0.2507-0.24505 0.85114-0.0848 1.1559-0.0466 0.03076 0.22556 0.09162 0.36569 0.31415 0.43984l0.12568 0.50265c0.38046 0.20485 0.89588 1.0292 1.0053 1.4452h2.1363c-0.0482-0.24128-0.13538-0.42287-0.377-0.50267-0.09803-0.7188-1.0136-1.6299-1.4452-2.1992 1.6584-0.41846 1.853-3.0575 0.82964-4.147-0.93778-0.99841-2.8701-0.75399-4.097-0.75399-0.28765 0-1.2603-0.1533-1.4073 0.14575-0.24511 0.49826-0.03783 1.5614-0.03783 2.1162v5.3408m7.917 0h5.5285v-1.4452h-2.7646c-0.2938 0-0.81344 0.0967-1.0303-0.15266-0.24662-0.28399-0.10064-1.06-0.10064-1.4182l3.393-0.0629v-1.4452h-3.393v-1.4452c0.64774-0.0818 1.2951-0.0629 1.9478-0.0629 0.46432 0 1.322 0.16589 1.7393-0.0466 0.26624-0.13572 0.23789-1.3013 0-1.4596-0.25586-0.17091-0.81451-0.0647-1.111-0.0647h-2.9532c-0.26609 0-1.0105-0.1288-1.1921 0.10051-0.27489 0.34748-0.06465 1.535-0.06465 1.973v5.5293m15.52-6.0948v6.0948h1.7593v-6.0948h2.0735c0-0.30537 0.1551-1.241-0.10064-1.4433-0.25001-0.19793-0.97391-0.0647-1.2816-0.0647h-3.2673c-0.29562 0-0.97775-0.12633-1.2188 0.0647-0.16815 0.13324-0.10063 0.50203-0.10063 0.68928 0 0.18285-0.0572 0.49953 0.0647 0.65346 0.11705 0.14771 0.3993 0.10051 0.56372 0.10051h1.508m10.305-1.508-1.1747 2.6861-0.58462 1.5237h-0.18849c-0.0345 1.185-1.1778 2.206-1.2567 3.393h1.7593c0.15431-0.39396 0.3606-1.3063 0.71279-1.5438 0.49274-0.33113 1.7802-0.0898 2.366-0.0898 0.21715 0 0.54402-0.0577 0.7195 0.10051 0.33453 0.30225 0.52913 1.1096 0.66283 1.5331h1.8222l-0.58681-1.5237-1.4545-3.3773-0.6605-1.6965h-0.1885l-0.31417-1.0053h-1.6337m5.7806 7.6028h1.6965v-2.0735c1.3062 0 3.0411 0.12122 3.885-1.1052 0.55731-0.81055 0.54854-2.1904 0.125-3.0499-0.1929-0.39271-0.52905-0.83884-0.99402-0.87151v-0.18849c-1.1628-0.14195-2.204-0.31416-3.393-0.31416-0.29563 0-0.97774-0.12633-1.2188 0.0647-0.29752 0.23563-0.10064 1.5187-0.10064 1.8831v5.655m7.2258 0h1.6965v-5.655c0-0.36444 0.19667-1.6475-0.10051-1.8831-0.26014-0.20609-1.464-0.16021-1.569 0.19039-0.19919 0.66666-0.027 1.6255-0.027 2.321v5.0267m-42.538-4.2098c-0.84989 0.34809-1.5963 0.31417-2.5133 0.31417v-2.1992c0.76399 0 2.4781-0.29911 2.6846 0.75399 0.08142 0.41595-0.08324 0.74205-0.17122 1.131m37.009 0.62832v-2.5133c0.63086 0 1.4702-0.13506 2.0371 0.20859 0.64152 0.38832 0.7207 1.6965 0.0332 2.0974-0.58705 0.34182-1.4212 0.20734-2.0703 0.20734m-5.8435 0.50268h-1.6337l0.69115-2.0735c0.46152 0.1515 0.93698 1.6035 0.94251 2.0735z" fill="#0480c0"/>
 </g>
 <style>.st0{fill:#007acc}.st1{fill:#fff}</style>
</svg>
