<?xml version="1.0" encoding="UTF-8"?>
<!-- Created with Inkscape (http://www.inkscape.org/) -->
<svg width="54.888mm" height="54.888mm" version="1.1" viewBox="0 0 54.888 54.888" xmlns="http://www.w3.org/2000/svg">
 <g transform="translate(-80.682 -121.9)">
  <g stroke-width=".024192"></g>
  <g transform="matrix(.26458 0 0 .26458 -146.44 36.178)">
   <path class="st0" d="m858.4 323.99v207.45h207.45v-207.45zm158.93 94.441c3.0404 0.10372 6.0742 0.41449 7.8634 0.88125l-0.1033 0.10434c5.29 1.2447 9.3353 3.6298 12.966 7.4157 1.9189 2.0745 4.7711 5.7053 4.9785 6.6388 0 0.31118-8.9726 6.3785-14.418 9.7495-0.2075 0.15558-1.0371-0.72608-1.8669-2.0745-2.6968-3.8378-5.446-5.497-9.7505-5.8082-6.2235-0.4149-10.372 2.8524-10.372 8.298 0 1.6596 0.3116 2.5929 0.9339 3.9413 1.4003 2.8524 3.993 4.5637 12.032 8.0904 14.833 6.3791 21.264 10.58 25.153 16.596 4.4083 6.7421 5.3943 17.323 2.4381 25.258-3.3192 8.661-11.41 14.521-22.975 16.44-3.6304 0.62235-11.928 0.51923-15.818-0.15498-8.298-1.5559-16.233-5.7053-21.108-11.047-1.9189-2.0745-5.6014-7.624-5.3939-7.987l1.9712-1.2449 7.7794-4.5116 5.8598-3.4227 1.3482 1.8152c1.7115 2.6968 5.5493 6.327 7.7794 7.5717 6.7421 3.4748 15.766 3.008 20.226-1.0372 1.9189-1.7633 2.7492-3.6304 2.7492-6.2235 0-2.3857-0.3631-3.4744-1.5559-5.2896-1.6596-2.2819-4.9786-4.149-14.314-8.298-10.736-4.5639-15.3-7.4682-19.553-11.928-2.4375-2.6968-4.6676-6.8977-5.7049-10.372-0.77793-3.008-1.037-10.373-0.31096-13.329 2.2301-10.372 10.061-17.633 21.264-19.708 1.8151-0.36304 4.8625-0.46636 7.9029-0.36263zm-76.983 1.0372c19.967 0 36.407 0.0521 36.407 0.20765 0.20745 0.10372 0.20766 3.8897 0.20766 8.5573v8.298h-26.968v76.756h-19.137v-76.756h-26.968v-8.454l0.15599 0.0517v-8.5056z" fill="#32b7e3" stroke-width=".51862"/>
  </g>
 </g>
 <style>.st0{fill:#007acc}.st1{fill:#fff}</style>
</svg>
