<?xml version="1.0" encoding="UTF-8"?>
<!-- Created with Inkscape (http://www.inkscape.org/) -->
<svg width="135.5mm" height="135.49mm" version="1.1" viewBox="0 0 135.5 135.49" xmlns="http://www.w3.org/2000/svg">
 <g transform="translate(-36.377 -83.771)">
  <path d="m47.578 218.87c-5.2264-1.2664-9.8131-5.9853-10.894-11.208-0.41016-1.9814-0.41016-110.31 0-112.29 1.1104-5.3639 5.9344-10.188 11.298-11.298 1.9814-0.41016 110.31-0.41016 112.29 0 5.3639 1.1104 10.188 5.9344 11.298 11.298 0.41016 1.9814 0.41016 110.31 0 112.29-1.1104 5.3639-5.9344 10.188-11.298 11.298-2.1688 0.44895-110.83 0.36224-112.69-0.0899zm41.106-39.004c2.8542-0.7237 6.4406-2.2929 8.853-3.8736 1.0775-0.70603 3.1568-2.4836 4.6206-3.9501 3.9766-3.9841 6.2053-7.9165 7.7234-13.627 0.5919-2.2265 0.67338-3.0613 0.67338-6.8987s-0.0815-4.6721-0.67338-6.8987c-1.5181-5.7106-3.7468-9.643-7.7234-13.627-3.0265-3.0322-5.5284-4.7806-8.9552-6.2579-4.0926-1.7644-6.2696-2.1804-11.433-2.1845-4.7834-4e-3 -6.6189 0.28129-9.9975 1.553-8.9968 3.3864-15.732 10.9-18.17 20.272-0.81365 3.1269-1.0192 8.7657-0.4406 12.084 2.1416 12.28 11.534 21.655 23.957 23.912 2.2214 0.40363 9.1864 0.10111 11.566-0.50237zm43.092-1.8717c3.18-1.5655 6.0899-5.4054 8.042-10.612 3.5727-9.5297 3.5727-22.201 0-31.731-1.3041-3.4785-2.7352-5.8992-4.7793-8.0844-4.7371-5.064-10.811-4.5457-15.204 1.2972-3.4397 4.5752-5.742 11.807-6.1373 19.279-0.46128 8.7182 0.86309 16.339 3.8833 22.345 3.6772 7.3128 8.9378 10.095 14.195 7.5064zm19.821-2.5837c1.2822-1.3828 2.3489-5.1084 3.2052-11.194 0.58943-4.1894 0.81949-16.337 0.40216-21.235-1.2989-15.243-4.9158-20.761-7.6741-11.707-1.3511 4.4352-2.1266 11.816-2.1266 20.242 0 13.886 2.1892 24.606 5.0249 24.606 0.27948 0 0.80528-0.32044 1.1684-0.71207z" fill="#1486a8" stroke-width=".26458"/>
 </g>
</svg>
