<?xml version="1.0" encoding="UTF-8"?>
<!-- Created with Inkscape (http://www.inkscape.org/) -->
<svg width="46.764mm" height="53.614mm" version="1.1" viewBox="0 0 46.764 53.614" xmlns="http://www.w3.org/2000/svg">
 <g transform="translate(-82.81 -123.15)">
  <g stroke-width=".024192"></g>
  <path d="m103.54 175.33c-1.3182-0.77942-6.5216-3.781-11.563-6.6701l-9.1665-5.2529 0.0012-13.508 0.0012-13.508 11.278-6.5036c6.2027-3.577 11.482-6.6015 11.731-6.7211 0.3522-0.16904 3.0488 1.2796 12.103 6.5018l11.65 6.7193v27.023l-11.589 6.6893c-6.3741 3.6791-11.693 6.6798-11.819 6.6681-0.1264-0.0116-1.3083-0.65887-2.6265-1.4383zm12.106-11.423 7.1764-4.2524-0.0632-9.8503-0.0633-9.8503-8.2525-4.7095c-7.4014-4.2238-8.3043-4.6764-8.7549-4.3878-0.27633 0.17697-4.0213 2.3863-8.3221 4.9096l-7.8197 4.5878 0.0654 9.7414 0.0654 9.7414 16.509 9.6071 1.1415-0.64233c0.62784-0.35328 4.3709-2.5559 8.3179-4.8947zm-12.517 1.4305-3.0581-1.6807-7e-3 -3.9277-6e-3 -3.9277 2.5639 1.5142c4.3539 2.5714 3.488 2.5275 7.209 0.36528l3.2344-1.8794-9e-3 3.8026-9e-3 3.8026-3.1339 1.8135c-1.7236 0.99743-3.2672 1.81-3.43 1.8057-0.1629-5e-3 -1.6723-0.76407-3.3543-1.6884zm11.697-6.866 9e-3 -3.8197 6.2353-3.587-3e-3 3.7946-3e-3 3.7946-1.9268 1.1256c-1.0597 0.61909-2.4654 1.4374-3.1237 1.8186l-1.1969 0.69295 9e-3 -3.8197zm-20.457 1.8573-3.0628-1.6747-0.0014-3.9195-0.0014-3.9195 6.5036 3.7844v3.7158c0 2.0437-0.08442 3.7096-0.18761 3.702-0.10318-8e-3 -1.5659-0.76735-3.2504-1.6884zm8.8786-5.3256-3.1893-1.7601 4e-3 -3.9232 4e-3 -3.9232 3.1362-1.8352c1.7642-1.0323 3.2982-1.773 3.5064-1.6931 0.2036 0.0781 1.7172 0.9364 3.3636 1.9073l2.9934 1.7652v7.4213l-3.2458 1.908c-1.7852 1.0494-3.2766 1.9046-3.3144 1.9006-0.0377-4e-3 -1.5037-0.79942-3.2578-1.7675zm-8.7611-5.0152-3.1955-1.7545 0.06879-3.8905 0.06879-3.8905 6.3623-3.7402 3.1349 1.8305c1.7242 1.0068 3.1349 1.8934 3.1349 1.9703 0 0.0769-1.3789 0.94136-3.0642 1.9211l-3.0642 1.7813-0.12507 3.7635-0.12507 3.7635zm20.274-1.8642-0.0692-3.6514-3.0017-1.7484c-1.6509-0.96161-3.0911-1.8336-3.2004-1.9378-0.22149-0.21109 5.5956-3.7784 6.12-3.7531 0.18272 8e-3 1.683 0.829 3.3339 1.8227l3.0017 1.8067 0.0689 3.784 0.0689 3.784-2.9954 1.7725c-1.6474 0.97488-3.0544 1.7725-3.1264 1.7725s-0.16226-1.6432-0.20034-3.6515zm-9.587-9.0934c-0.40588-0.24857-1.8456-1.0972-3.1994-1.8859l-2.4614-1.4339 3.0868-1.8465c1.6977-1.0156 3.165-1.8472 3.2606-1.8482 0.0956-9.3e-4 1.5967 0.83365 3.3357 1.8546 3.0854 1.8114 3.1477 1.8651 2.5777 2.2214-0.75725 0.47322-4.6843 2.7612-5.3493 3.1165-0.40215 0.21491-0.67189 0.17653-1.2507-0.17797z" fill="#32b7e3" stroke-width=".25014"/>
 </g>
 <style>.st0{fill:#007acc}.st1{fill:#fff}</style>
</svg>
