<?xml version="1.0" encoding="UTF-8"?>
<!-- Created with Inkscape (http://www.inkscape.org/) -->
<svg width="128.76mm" height="128.76mm" version="1.1" viewBox="0 0 128.76 128.76" xmlns="http://www.w3.org/2000/svg">
 <g transform="translate(-37.642 -86.111)">
  <path d="m37.642 150.49v-64.38h128.76v128.76h-128.76zm44.89 40.464c13.568 6.6126 30.268 5.7682 43.059-2.1772 9.6998-6.0249 16.604-15.151 19.83-26.212 2.1605-7.4072 2.1684-16.689 0.0205-24.271-3.5336-12.474-12.072-22.689-23.736-28.396-6.2245-3.0455-12.409-4.4551-19.558-4.458-12.296-5e-3 -23.109 4.4458-31.792 13.086-11.405 11.348-15.883 27.701-11.839 43.23 0.85682 3.2898 2.3917 7.2743 3.7413 9.7123l0.94284 1.7032-3.0968 10.979c-1.7033 6.0385-3.097 11.101-3.0972 11.249-1.9e-4 0.15349 4.9747-1.0142 11.505-2.7003l11.505-2.9708zm16.347-3.5049c-5.8479-0.50967-10.978-2.2308-16.866-5.6591-0.76753-0.44683-0.80382-0.44072-7.2731 1.2256-3.576 0.9211-6.5289 1.6469-6.562 1.6129-0.0331-0.034 0.73625-2.8938 1.7097-6.355l1.7699-6.2931-1.0328-1.6874c-1.7-2.7775-2.7881-5.1173-3.8149-8.2038-2.7875-8.3788-2.5272-17.119 0.76026-25.528 1.8516-4.7356 4.5648-8.7918 8.4304-12.603 7.1134-7.013 16.081-10.694 26.023-10.683 10.04 0.0111 18.666 3.4611 25.746 10.297 7.5168 7.2577 11.465 16.484 11.465 26.792 0 14.324-7.9989 27.094-20.99 33.508-5.6776 2.8032-12.91 4.1391-19.364 3.5766zm18.101-15.879c1.6695-0.42812 3.8827-1.6805 5.0726-2.8704 1.3361-1.3361 2.1936-3.0742 2.7522-5.5784 0.3538-1.5862 0.36077-1.9006 0.0524-2.365-0.43615-0.65688-10.27-5.2363-11.245-5.2363-0.78171 0-1.2138 0.42446-3.6482 3.5837-1.361 1.7662-1.8246 2.2005-2.3488 2.2005-1.6711 0-8.0906-3.8123-10.961-6.5094-2.2648-2.128-5.6942-6.8635-5.6958-7.8652-2.5e-4 -0.22944 0.96129-1.563 2.137-2.9634 1.1757-1.4004 2.1376-2.7321 2.1376-2.9592 0-0.74527-4.5707-11.144-4.9939-11.362-0.22717-0.11677-1.2994-0.28955-2.3828-0.38396-1.7224-0.1501-2.1113-0.10315-3.0966 0.37383-1.4064 0.68083-3.4216 3.0541-4.4693 5.2634-0.74912 1.5797-0.77486 1.7488-0.76543 5.0297 0.0083 2.9085 0.09397 3.6293 0.59745 5.0297 1.6222 4.512 4.6459 9.044 9.1895 13.773 5.6242 5.8541 11.121 9.4548 18.115 11.867 4.2957 1.4812 6.639 1.7198 9.5529 0.9725z" fill="#1486a8" stroke-width=".25148"/>
 </g>
</svg>
